<svg xmlns="http://www.w3.org/2000/svg" width="163.556" height="53.359" viewBox="0 0 163.556152 53.358887" enable-background="new 0 0 163.556152 53.358887">
<path fill="#fff" d="M0 11.6h7.076v5.104c0 1.102-.116 2.088-.116 2.088h.116c1.334-4.234 4.872-7.598 9.396-7.598.696 0 1.334.116 1.334.116v7.25s-.754-.116-1.74-.116c-3.132 0-6.67 1.798-8.062 6.206-.464 1.45-.638 3.074-.638 4.814v11.716h-7.366v-29.579zM20.184 0h7.308v6.554h-7.308v-6.554zm0 11.6h7.366v29.579h-7.366v-29.579zM33.06 11.6h7.076v3.422c0 1.102-.116 2.03-.116 2.03h.116c1.276-2.494 4.524-6.148 10.498-6.148 6.554 0 10.266 3.422 10.266 11.252v19.023h-7.308v-17.516c0-3.596-.928-6.032-4.698-6.032-3.944 0-6.844 2.494-7.946 6.032-.406 1.218-.522 2.552-.522 3.944v13.572h-7.366v-29.579zM77.197 47.095c4.523 0 8.352-1.914 8.352-7.192v-1.739c0-.696.116-1.566.116-1.566h-.116c-1.74 2.61-4.292 4.002-8.235 4.002-8.469 0-13.282-6.844-13.282-14.963 0-8.12 4.582-14.732 13.107-14.732 6.438 0 8.758 3.77 8.758 3.77h.174s-.058-.348-.058-.812v-2.262h6.902v27.781c0 10.149-7.889 13.978-15.602 13.978-3.712 0-7.656-1.044-10.498-2.552l2.204-5.626s3.712 1.914 8.178 1.914zm8.525-21.402c0-6.728-3.306-8.525-7.308-8.525-4.466 0-6.96 3.248-6.96 8.236 0 5.161 2.668 8.989 7.424 8.989 3.538 0 6.844-2.029 6.844-8.7zM112.459 10.904c9.048 0 16.298 6.438 16.298 15.486 0 9.106-7.25 15.486-16.24 15.486-9.048 0-16.297-6.38-16.297-15.486 0-9.048 7.249-15.486 16.239-15.486zm.058 24.707c4.756 0 8.758-3.711 8.758-9.221 0-5.452-4.002-9.222-8.758-9.222-4.813 0-8.815 3.77-8.815 9.222 0 5.51 4.002 9.221 8.815 9.221z"/>
<path fill="#bbb" d="M137.98 11.832v30.333c0 9.802-7.54 10.961-11.193 10.961-1.218 0-1.972-.115-1.972-.115v-4.814s.521.059 1.275.059c2.146 0 6.322-.696 6.322-6.438v-29.985h5.567zm-5.626-11.6h5.685v5.742h-5.685v-5.742zM144.533 33.582s3.306 3.422 8.41 3.422c2.436 0 4.871-1.276 4.871-3.654 0-5.394-15.079-4.292-15.079-13.861 0-5.336 4.756-8.352 10.613-8.352 6.438 0 9.454 3.248 9.454 3.248l-2.262 4.234s-2.61-2.61-7.25-2.61c-2.436 0-4.813 1.044-4.813 3.596 0 5.278 15.079 4.118 15.079 13.746 0 4.872-4.176 8.526-10.613 8.526-7.192 0-11.136-4.292-11.136-4.292l2.726-4.002z"/>
</svg>