<svg width="51cm" height="13cm" viewBox="37 88 1017 248" xmlns="http://www.w3.org/2000/svg"><path fill="#fff" d="M608.96 126.42h444.7v209h-444.7z"/><path stroke-width="2" stroke="#000" fill="none" d="M608.96 126.42h444.7v209h-444.7z"/><path fill="#fff" d="M608.96 90.42h165.7v36h-165.7z"/><path stroke-width="2" stroke="#000" fill="none" d="M608.96 90.42h165.7v36h-165.7z"/><text font-size="12.8" x="610.96" y="104.42" font-family="monospace">&lt;&lt;JavaScript Engine&gt;&gt;</text><text font-size="12.8" x="610.96" y="120.42" font-family="monospace">Rhino</text><path fill="#fff" d="M217.66 125.92h377v209h-377z"/><path stroke-width="2" stroke="#000" fill="none" d="M217.66 125.92h377v209h-377z"/><path fill="#fff" d="M217.66 89.92h204.2v36h-204.2z"/><path stroke-width="2" stroke="#000" fill="none" d="M217.66 89.92h204.2v36h-204.2z"/><text font-size="12.8" x="219.66" y="103.92" font-family="monospace">&lt;&lt;Java Servlet Container&gt;&gt;</text><text font-size="12.8" x="219.66" y="119.92" font-family="monospace">Jetty</text><path d="M675.455 171.566h312.138l62.427 64.7-62.427 64.7h-312.138l-62.427-64.7 62.427-64.7z" fill="#e5e5e5"/><path d="M675.455 171.566h312.138l62.427 64.7-62.427 64.7h-312.138l-62.427-64.7 62.427-64.7" stroke-width="2" stroke="#000" fill="none"/><text font-size="12.8" x="831.524" y="241.066" text-anchor="middle" font-family="sans-serif"/><path fill="#ffdb99" d="M240.716 191.983h125v85.034h-125z"/><path stroke-width="2" stroke="#000" fill="none" d="M240.716 191.983h125v85.034h-125z"/><text font-size="16.809" x="303.216" y="230.289" text-anchor="middle" font-family="sans-serif"><tspan x="303.216" y="230.289">Jetty</tspan><tspan x="303.216" y="251.3">HTTP Handler</tspan></text><path fill="#ffdb99" d="M421.65 205.894h125v57h-125z"/><path stroke-width="2" stroke="#000" fill="none" d="M421.65 205.894h125v57h-125z"/><text font-size="16.809" x="484.15" y="240.688" text-anchor="middle" font-family="sans-serif"><tspan x="484.15" y="240.688">JsgiServlet</tspan></text><path fill="#afc5df" d="M679.258 216.866h170.75v43.011h-170.75z"/><path stroke-width="2" stroke="#000" fill="none" d="M679.258 216.866h170.75v43.011h-170.75z"/><text font-size="13.547" x="764.633" y="243.455" text-anchor="middle" font-family="sans-serif"><tspan x="764.633" y="243.455">ringo/jsgi/connector</tspan></text><path fill="#afc5df" d="M889.432 216.76h102.605v43.011h-102.605z"/><path stroke-width="2" stroke="#000" fill="none" d="M889.432 216.76h102.605v43.011h-102.605z"/><text font-size="13.547" x="940.735" y="243.349" text-anchor="middle" font-family="sans-serif"><tspan x="940.735" y="243.349">app()</tspan></text><path d="M850.008 216.866c10.976 0 28.448 10.646 29.688 10.646" stroke-width="2" stroke="#000" fill="none"/><path d="M887.196 227.512l-10 5 2.5-5-2.5-5z"/><path stroke-width="2" stroke="#000" fill="none" d="M887.196 227.512l-10 5 2.5-5-2.5-5zM889.432 259.772c-8.662 0-30.762-10.648-29.688-10.648"/><path d="M852.244 249.124l10-5-2.5 5 2.5 5z"/><path stroke-width="2" stroke="#000" fill="none" d="M852.244 249.124l10-5-2.5 5 2.5 5zM546.65 220.144c75.57-23.122 219.82-54.235 218.335-13.008"/><path d="M764.715 214.631l-4.637-10.173 4.907 2.678 5.086-2.318z"/><path stroke-width="2" stroke="#000" fill="none" d="M764.715 214.631l-4.637-10.173 4.907 2.678 5.086-2.318zM764.634 259.878c23.05 40.382-172.82 15.632-209.616-6.257"/><path d="M548.572 249.787l11.15.815-4.704 3.019-.408 5.576z"/><path stroke-width="2" stroke="#000" fill="none" d="M548.572 249.787l11.15.815-4.704 3.019-.408 5.576zM365.716 213.242l46.271 5.71"/><path d="M419.431 219.87l-10.537 3.738 3.093-4.656-1.869-5.269z"/><path stroke-width="2" stroke="#000" fill="none" d="M419.431 219.87l-10.537 3.738 3.093-4.656-1.869-5.269zM421.65 248.644l-46.276 5.886"/><path d="M367.934 255.476l9.289-6.222-1.849 5.276 3.111 4.644z"/><path stroke-width="2" stroke="#000" fill="none" d="M367.934 255.476l9.289-6.222-1.849 5.276 3.111 4.644z"/><text font-size="12.8" x="937.59" y="185.708" font-family="sans-serif" font-style="oblique"><tspan x="937.59" y="185.708">Worker</tspan></text><ellipse cx="71" cy="186" rx="6" ry="6" fill="#fff"/><ellipse cx="71" cy="186" rx="6" ry="6" stroke-width="2" stroke="#000" fill="none"/><path stroke-width="2" stroke="#000" fill="none" d="M47 198h48M71 192v30M71 222l-24 26M71 222l24 26"/><text font-size="12.8" x="71" y="272.8" text-anchor="middle" font-family="sans-serif"><tspan x="71" y="272.8">HTTP Client</tspan></text><path d="M96 222c74-40 96-26 135.538-12.006" stroke-width="2" stroke="#000" fill="none"/><path d="M238.608 212.496l-11.095 1.377 4.025-3.879-.689-5.548z"/><path stroke-width="2" stroke="#000" fill="none" d="M238.608 212.496l-11.095 1.377 4.025-3.879-.689-5.548zM240.716 255.758c-47.716 7.242-97.716 8.242-137.456-27.271"/><path d="M97.667 223.49l10.789 2.935-5.196 2.062-1.468 5.395z"/><path stroke-width="2" stroke="#000" fill="none" d="M97.667 223.49l10.789 2.935-5.196 2.062-1.468 5.395z"/></svg>