<?xml version="1.0" encoding="UTF-8" standalone="no"?>
<!-- Generator: Adobe Illustrator 14.0.0, SVG Export Plug-In . SVG Version: 6.00 Build 43363)  -->

<svg
   xmlns:dc="http://purl.org/dc/elements/1.1/"
   xmlns:cc="http://creativecommons.org/ns#"
   xmlns:rdf="http://www.w3.org/1999/02/22-rdf-syntax-ns#"
   xmlns:svg="http://www.w3.org/2000/svg"
   xmlns="http://www.w3.org/2000/svg"
   xmlns:sodipodi="http://sodipodi.sourceforge.net/DTD/sodipodi-0.dtd"
   xmlns:inkscape="http://www.inkscape.org/namespaces/inkscape"
   version="1.1"
   id="Calque_1"
   x="0px"
   y="0px"
   width="390.84px"
   height="425.2px"
   viewBox="0 0 390.84 425.2"
   enable-background="new 0 0 390.84 425.2"
   xml:space="preserve"
   inkscape:version="0.48.3.1 r9886"
   sodipodi:docname="black-rhino.svg"><metadata
   id="metadata13"><rdf:RDF><cc:Work
       rdf:about=""><dc:format>image/svg+xml</dc:format><dc:type
         rdf:resource="http://purl.org/dc/dcmitype/StillImage" /></cc:Work></rdf:RDF></metadata><defs
   id="defs11" /><sodipodi:namedview
   pagecolor="#ffffff"
   bordercolor="#666666"
   borderopacity="1"
   objecttolerance="10"
   gridtolerance="10"
   guidetolerance="10"
   inkscape:pageopacity="0"
   inkscape:pageshadow="2"
   inkscape:window-width="1101"
   inkscape:window-height="976"
   id="namedview9"
   showgrid="false"
   inkscape:zoom="0.78493507"
   inkscape:cx="327.10092"
   inkscape:cy="88.58951"
   inkscape:window-x="707"
   inkscape:window-y="94"
   inkscape:window-maximized="0"
   inkscape:current-layer="g3" />
<g
   id="g3">
	<path
   d="M379.625,122.581c7.023-10.11,8.996-23.775,9.352-33.985l2.071-0.258c-0.536-1.618-1.2-2.903-2.005-3.945   c-0.025-5.995-0.539-10.017-0.539-10.017c2.478-7.843-3.389-19.826-6.345-31.722c5.521-1.973,5.849-1.685,7.608-7.615   c-3.803-0.423-7.608-0.844-11.418-1.27c0.846-2.537,1.689-5.072,2.542-7.61l-3.808-3.808c-3.38,1.688-6.767,3.384-10.145,5.071   c1.683-2.959,3.378-5.919,5.068-8.879c-5.266-4.314-10.532-6.415-13.963-12.689c-4.228,0.844-8.453,1.689-12.684,2.536   c-10.335-0.554-19.385,16.708-30.576,33.95c-6.088,7.696-11.83,15.373-15.682,20.585c-6.161,6.341-13.05,11.145-21,12.719v0.127   c-0.578-0.048-1.167-0.127-1.762-0.237c-6.626-16.927-36.185-24.079-59.205-25.178c-0.003-0.004-0.011-0.011-0.014-0.015   c-5.323-0.485-10.568-0.632-15.571-0.559c-2.824-15.911-5.647-31.827-8.462-47.736c-2.118-0.847-4.229-1.691-6.345-2.54   c-3.855,18.808-5.752,35.196-6.902,51.899c-6.174,0.82-10.845,1.74-13.18,2.24c-17.221,2.294-37.556,22.766-53.518,24.539   l-25.378-25.38c-7.482-16.28-4.307-32.329-17.765-41.876C57.778,2.257,38.882,5.216,25.587-0.492l-3.806,3.809   c2.115,0.847,4.23,1.69,6.347,2.538c-5.361,4.288-7.123,6.609-11.427,6.34c-0.669,3.187-0.079,5.231,5.08,8.887v1.27   c-3.382,0.419-6.771,0.847-10.149,1.265c2.239,4.607,1.36,3.388,6.343,5.081c-1.692,2.535-3.385,5.072-5.081,7.61   c0.133,0.201,0.267,0.403,0.403,0.605l-2.938,4.473c0.43,2.534,0.853,5.075,1.273,7.61c-3.809,1.697-7.616,3.388-11.419,5.078   c3.377,2.539,6.762,5.077,10.146,7.614C4.88,65.899,5.62,66.913,4.016,74.375c9.142,2.429,8.225,13.465,6.343,21.575   c0.853,0.424,1.693,0.842,2.535,1.273c0.397-0.375,0.79-0.782,1.168-1.212c0.873,0.339,1.749,0.957,2.632,1.827   c-5.445,17.132,12.724,36.027,29.197,41.255c17.845,5.667,36.5-1.77,52.027,1.264c1.373,24.433,5.859,49.259,10.154,73.597   c4.99,28.339-10.956,52.868-5.077,86.293c9.939,56.553,43.72,119.025,102.78,124.356c16.209,1.46,30.902-13.38,41.88-19.031   c89.704-46.184,65.562-163.631,57.101-272.822c13.848,0.615,13.469,7.191,21.568,11.419c19.385,10.1,34.668-3.691,46.066-14.047   c1.525-1.13,2.912-2.385,4.176-3.74c1.064-0.918,2.08-1.772,3.059-2.515V122.581z"
   id="path5"
   style="fill:#333333" />
	<path
   fill-rule="evenodd"
   clip-rule="evenodd"
   fill="#FFFFFF"
   d="M82.238,92.059c7.59-85.226-34.259-83.75-34.259-83.75   c10.736,16.226-8.898,19.346-15.644,16.28c0.611,1.84-2.452,12.265-2.452,12.265s-4.907,6.747-0.936,14.6   c3.968,7.849-3.971,14.836-11.427,22.838c0,0,4.392,7.942,3.779,17.143c-3.682,19.008,14.715,36.179,31.269,44.761   c16.561,8.586,42.318-14.102,42.318-14.102s6.13,4.904,8.928,1.688c0.956-4.443-1.569-13.34,0.882-17.02   C98.565,107.991,93.043,104.921,82.238,92.059z M88.754,114.122c-3.679,5.519-9.814,1.84-17.782-1.84   c-7.976-3.679-17.182-3.061-16.564-11.343c0.615-8.279-7.97-4.601-7.97-16.869c0-12.261-3.917-10.424-4.717-19.929   c-0.801-9.505,4.717-22.996,6.56-32.193c0,0,14.103,13.492,20.237,40.475C74.034,91.435,92.431,108.603,88.754,114.122z    M177.574,290.313c0.428-0.015,0.815-0.091,1.104-0.296C178.332,290.111,177.955,290.214,177.574,290.313z M176.447,187.095   c-11.038,20.854-11.723,42.01-11.723,42.01c4.219,1.534,4.975-3.984,14.172-10.119c9.203-6.133-1.225-15.331-2.45-21.463   c-1.226-6.133,11.653-1.838,18.726-5.218c6.463-7.67-2.168-43.84-7.688-43.84C191.777,161.953,183.805,166.245,176.447,187.095z    M384.337,79.781c-8.589-1.228-10.429-5.519-10.429-12.263c16.557-6.135-2.449-32.503-14.719-38.023   c-49.059-6.744-44.149,83.4-44.149,83.4c4.908-4.903,18.397-55.803,25.752-62.548c7.362-6.746,19.014-2.455,24.531,15.944   c4.907,21.462,0.618,22.69-10.269,27.036c7.52,10.482,1.07,20.183-6.284,15.889c2.446,4.294,0.61,15.944-4.298,14.716   c-4.908-1.225-15.941-2.448-19.625,5.522c-3.679,7.97,7.363,15.329,19.625,14.104c12.27-1.228,30.05-26.981,34.348-25.142   c0-4.294,1.219-15.332,0-20.238C375.137,91.435,383.721,81.007,384.337,79.781z M310.742,247.194   c-7.354-20.851-12.872-62.551-19.006-82.786c-10.424-19.011-45.381-41.089-47.068-46.971c23.454,7.607,51.357,38.382,51.975,35.93   c-17.171-12.88-25.756-70.522-26.985-77.88c-12.263-15.332-61.323-17.171-61.323-17.171c-7.357,3.065-3.064,12.265,4.906,56.417   c7.973,44.155,20.853,52.742,35.569,62.552c14.715,9.809,6.746,19.621,15.329,26.98c8.586,7.361,8.586,1.843,1.229,6.746   c-8.586,1.84-14.107-2.449-19.012,7.36c-4.905,9.811,5.92-1.96,14.812,4.389c8.889,6.346-8.065,10.941-6.227,19.526   c1.841,8.586,9.812-11.037,12.563-8.109c0.908,13.965-7.613,21.577,0.314,27.12c7.929,5.543,12.881,1.228,19.99,0.797   c8.33,16.125,19.87,16.374,19.87,16.374s2.452-3.067,0.616-11.037c-6.134,8.585-7.361,5.52-15.332-3.066   C284.99,255.784,300.316,247.194,310.742,247.194z M183.19,317.719c-17.781-5.518-23.917,3.677-29.435,4.292   c-5.519,0.612-7.36-7.362-6.748-11.037c0,0,36.182,2.452,41.092,3.062c4.905,0.612,8.584-7.357,3.677-9.197   c-12.88,0.615-38.021-10.429-36.179-9.813c1.748,0.586,14.583-2.711,21.976-4.712c-4.405,0.194-15.234-8.779-15.234-8.779   s3.07,1.228,7.359-1.222c2.454-5.521,1.228-19.626-7.972-20.238c1.841,8.583-7.972,20.238-10.968,17.253   c-2.993-2.988,5.449-39.334,4.838-49.759c-0.615-10.423,5.519-38.019,14.715-57.645c9.199-19.623,8.584-91.37,9.199-103.633   c-22.688-6.134-38.021,8.583-49.052,18.808c-17.166,5.93-35.573-16.972-35.573-16.972c-7.36,44.155,15.946,27.6,24.53,25.757   c-17.17,42.313-9.196,107.319-9.196,107.319s5.517-13.492,13.893-22.853c-6.949,22.526-15.122,65.166-13.281,76.819   c11.647-2.455,16.556,0.615,17.09,5.666c0.54,5.055,2.53,18.859-0.535,23.766c10.424,1.228,9.814-26.366,14.492-38.997   c4.681,0.243-2.227,42.68-1.616,47.584c0.612,4.905-3.677,11.036-12.266,14.719c-8.583,3.68-9.198-15.943-14.715-19.014   c-4.292,13.492,12.878,23.309,5.754,27.769c-7.125,4.468,6.347,12.693,11.422,12.693c5.071,0,1.832,14.118,0,19.034   c4.911-1.219,3.674-3.076,11.031-12.89c18.646-6.539,6.737,5.273,2.454,8.586c-4.282,3.316,12.88,6.747,21.465,9.812   c-2.453,6.135,12.877,31.889,24.687,36.362c7.521-9.632-17.329-38.2-14.875-39.428c6.132,5.518,18.399,4.29,26.983,1.838   c17.783-18.398-17.172-17.171-28.824-19.011c-11.653-1.835-6.745-6.127,4.907-8.585c11.649-2.451,32.12,5.546,37.191,8.086   c-1.442,4.4-6.531,22.577,3.808,22.841s1.928-18.659,2.542-22.841c0.61-4.186,11.034-7.474,18.396-8.698   c6.747,0,6.132-5.519,3.17-9.07C229.395,317.971,200.977,323.234,183.19,317.719z M282.281,103.936   c2.195,3.503,4.752,4.667,8.024,6.304c3.274,1.636,11.855-3.68,17.169-9.404c5.316-5.722,0.82-5.722-2.859-8.995   c4.564-5.746,6.127-21.259,9.388-31.054c-6.137,4.926-32.984,22.841-32.984,22.841C272.956,89.731,280.086,100.427,282.281,103.936   z"
   id="path7" />
</g>
</svg>