<svg xmlns="http://www.w3.org/2000/svg" width="70" height="70"><linearGradient id="a" gradientUnits="userSpaceOnUse" x1=".79" y1="40.089" x2="33.317" y2="40.089"><stop offset=".258" stop-color="#f97a12"/><stop offset=".459" stop-color="#b07b58"/><stop offset=".724" stop-color="#577bae"/><stop offset=".91" stop-color="#1e7ce5"/><stop offset="1" stop-color="#087cfa"/></linearGradient><path fill="url(#a)" d="M17.7 54.6L.8 41.2l8.4-15.6L33.3 35z"/><linearGradient id="b" gradientUnits="userSpaceOnUse" x1="25.767" y1="24.88" x2="79.424" y2="54.57"><stop offset="0" stop-color="#f97a12"/><stop offset=".072" stop-color="#cb7a3e"/><stop offset=".154" stop-color="#9e7b6a"/><stop offset=".242" stop-color="#757b91"/><stop offset=".334" stop-color="#537bb1"/><stop offset=".432" stop-color="#387ccc"/><stop offset=".538" stop-color="#237ce0"/><stop offset=".655" stop-color="#147cef"/><stop offset=".792" stop-color="#0b7cf7"/><stop offset="1" stop-color="#087cfa"/></linearGradient><path fill="url(#b)" d="M70 18.7l-1.3 40.5L41.8 70 25.6 59.6 49.3 35 38.9 12.3l9.3-11.2z"/><linearGradient id="c" gradientUnits="userSpaceOnUse" x1="63.228" y1="42.915" x2="48.29" y2="-1.719"><stop offset="0" stop-color="#fe315d"/><stop offset=".078" stop-color="#cb417e"/><stop offset=".16" stop-color="#9e4e9b"/><stop offset=".247" stop-color="#755bb4"/><stop offset=".339" stop-color="#5365ca"/><stop offset=".436" stop-color="#386ddb"/><stop offset=".541" stop-color="#2374e9"/><stop offset=".658" stop-color="#1478f3"/><stop offset=".794" stop-color="#0b7bf8"/><stop offset="1" stop-color="#087cfa"/></linearGradient><path fill="url(#c)" d="M70 18.7L48.7 43.9l-9.8-31.6 9.3-11.2z"/><linearGradient id="d" gradientUnits="userSpaceOnUse" x1="10.72" y1="16.473" x2="55.524" y2="90.58"><stop offset="0" stop-color="#fe315d"/><stop offset=".04" stop-color="#f63462"/><stop offset=".104" stop-color="#df3a71"/><stop offset=".167" stop-color="#c24383"/><stop offset=".291" stop-color="#ad4a91"/><stop offset=".55" stop-color="#755bb4"/><stop offset=".917" stop-color="#1d76ed"/><stop offset="1" stop-color="#087cfa"/></linearGradient><path fill="url(#d)" d="M33.7 58.1L5.6 68.3l4.5-15.8L16 33.1 0 27.7 10.1 0l22 2.7 21.6 24.7z"/><g><path d="M13.7 13.5h43.2v43.2H13.7z"/><path fill="#fff" d="M17.7 48.6h16.2v2.7H17.7zM29.4 22.4v-3.3h-9v3.3H23v11.3h-2.6V37h9v-3.3h-2.5V22.4zM38 37.3c-1.4 0-2.6-.3-3.5-.8-.9-.5-1.7-1.2-2.3-1.9l2.5-2.8c.5.6 1 1 1.5 1.3.5.3 1.1.5 1.7.5.7 0 1.3-.2 1.8-.7.4-.5.6-1.2.6-2.3V19.1h4v11.7c0 1.1-.1 2-.4 2.8-.3.8-.7 1.4-1.3 2-.5.5-1.2 1-2 1.2-.8.3-1.6.5-2.6.5"/></g></svg>
